<svg width="30" height="37" viewBox="0 0 30 37" fill="none" xmlns="http://www.w3.org/2000/svg">
<path d="M27.4485 32.3728C25.9139 34.6667 24.2868 36.905 21.8092 36.942C19.3317 36.9975 18.5366 35.4806 15.7263 35.4806C12.8974 35.4806 12.0284 36.905 9.68023 36.9975C7.25813 37.09 5.42769 34.5557 3.87459 32.3174C0.712928 27.7482 -1.70917 19.3312 1.54495 13.6706C3.15351 10.8588 6.03784 9.0829 9.16253 9.0274C11.5292 8.9904 13.7849 10.6368 15.2456 10.6368C16.6877 10.6368 19.4241 8.65742 22.29 8.95341C23.4918 9.0089 26.8568 9.43437 29.0201 12.6162C28.8537 12.7272 25.0079 14.984 25.0449 19.6642C25.1003 25.2508 29.9445 27.1192 30 27.1377C29.9445 27.2672 29.2234 29.8015 27.4485 32.3728ZM16.8911 2.77482C18.2408 1.23942 20.478 0.0739951 22.3269 0C22.5673 2.16436 21.6983 4.34721 20.4041 5.90111C19.1283 7.4735 17.0205 8.69442 14.9497 8.52793C14.6724 6.40058 15.7078 4.18072 16.8911 2.77482Z" fill="url(#paint0_linear_123_6355)"/>
<defs>
<linearGradient id="paint0_linear_123_6355" x1="0" y1="0" x2="36.201" y2="29.3521" gradientUnits="userSpaceOnUse">
<stop stop-color="#F9F5D0"/>
<stop offset="1" stop-color="#BB8197"/>
</linearGradient>
</defs>
</svg>
