<svg width="30" height="30" viewBox="0 0 30 30" fill="none" xmlns="http://www.w3.org/2000/svg">
<path d="M15 28.125C22.2487 28.125 28.125 22.2487 28.125 15C28.125 7.75126 22.2487 1.875 15 1.875C7.75126 1.875 1.875 7.75126 1.875 15C1.875 22.2487 7.75126 28.125 15 28.125Z" fill="url(#paint0_linear_334_6751)"/>
<path d="M17.2939 8.11315C17.5776 7.618 17.408 6.98556 16.9151 6.70057C16.4223 6.41558 15.7927 6.58596 15.5091 7.08111L15.0143 7.94477L14.5195 7.08111C14.2358 6.58596 13.6063 6.41558 13.1135 6.70057C12.6206 6.98556 12.451 7.618 12.7347 8.11315L13.8263 10.0185L10.3736 16.0452H7.59217C7.0235 16.0452 6.5625 16.5083 6.5625 17.0797C6.5625 17.651 7.0235 18.1141 7.59217 18.1141H17.2804C17.3653 17.8898 17.4547 17.5051 17.3596 17.1515C17.2166 16.6199 16.6875 16.0452 15.8008 16.0452H12.7497L17.2939 8.11315Z" fill="white"/>
<path d="M10.9092 19.2581C10.7335 19.062 10.3399 18.7488 9.99475 18.6458C9.46853 18.4886 9.06955 18.5872 8.86826 18.6731L8.1013 20.0119C7.81763 20.507 7.98721 21.1394 8.48007 21.4244C8.97294 21.7094 9.6024 21.5391 9.88609 21.0439L10.9092 19.2581Z" fill="white"/>
<path d="M20.8402 18.1141H22.4079C22.9766 18.1141 23.4375 17.651 23.4375 17.0796C23.4375 16.5083 22.9766 16.0452 22.4079 16.0452H19.655L16.5539 10.6323C16.3236 10.8522 15.8819 11.414 15.8152 12.0511C15.7294 12.87 15.858 13.5596 16.2442 14.2349C17.5424 16.5052 18.8426 18.7745 20.1426 21.0439C20.4263 21.539 21.0557 21.7094 21.5487 21.4244C22.0415 21.1394 22.2111 20.507 21.9274 20.0119L20.8402 18.1141Z" fill="white"/>
<defs>
<linearGradient id="paint0_linear_334_6751" x1="15" y1="1.875" x2="15" y2="28.125" gradientUnits="userSpaceOnUse">
<stop stop-color="#2AC9FA"/>
<stop offset="1" stop-color="#1F65EB"/>
</linearGradient>
</defs>
</svg>
