<svg width="65" height="65" viewBox="0 0 65 65" fill="none" xmlns="http://www.w3.org/2000/svg">
<path d="M35.3665 45.9431L46.4231 41.1663C47.7242 40.4148 48.5261 39.0265 48.5261 37.5236V23.573C48.5261 22.2572 47.8242 21.0414 46.6846 20.3835L34.3415 13.2578C33.2019 12.5999 31.7981 12.5999 30.6584 13.2578L18.3154 20.3835C17.1758 21.0414 16.4739 22.2572 16.4739 23.573V37.5236C16.4739 39.0265 17.2758 40.4148 18.5769 41.1663L29.74 45.989" stroke="#7482FF" stroke-width="2.46154" stroke-miterlimit="10"/>
<path d="M32.5001 54.3269V36.8859L40.2783 33.6799" stroke="#7C89FA" stroke-width="2.46154" stroke-miterlimit="10"/>
<path d="M41.5913 34.5195C42.3904 34.5195 43.0383 33.8716 43.0383 33.0725C43.0383 32.2733 42.3904 31.6255 41.5913 31.6255C40.7921 31.6255 40.1443 32.2733 40.1443 33.0725C40.1443 33.8716 40.7921 34.5195 41.5913 34.5195Z" stroke="#7C89FA" stroke-width="2.46154" stroke-miterlimit="10"/>
<path d="M25.2485 30.562L32.4367 33.4313V23.7693" stroke="#7C89FA" stroke-width="2.46154" stroke-miterlimit="10"/>
<path d="M33.8659 22.6297C33.994 21.8409 33.4583 21.0976 32.6694 20.9696C31.8806 20.8416 31.1373 21.3772 31.0093 22.1661C30.8813 22.9549 31.4169 23.6982 32.2058 23.8262C32.9946 23.9543 33.7379 23.4186 33.8659 22.6297Z" stroke="#7C89FA" stroke-width="2.46154" stroke-miterlimit="10"/>
<path d="M25.3349 30.2557C25.4629 29.4668 24.9272 28.7236 24.1384 28.5956C23.3496 28.4675 22.6063 29.0032 22.4783 29.7921C22.3502 30.5809 22.8859 31.3242 23.6748 31.4522C24.4636 31.5802 25.2069 31.0445 25.3349 30.2557Z" stroke="#7C89FA" stroke-width="2.46154" stroke-miterlimit="10"/>
<path d="M33.7085 25.6201C33.7131 29.7977 33.147 33.1854 32.4451 33.1854C31.7422 33.1863 31.1697 29.8005 31.1651 25.6228C31.1605 21.4452 31.7266 18.0585 32.4285 18.0576C33.1305 18.0566 33.704 21.4424 33.7085 25.6201Z" fill="url(#paint0_radial_898_1525)"/>
<path d="M33.7085 51.566C33.7131 55.7436 33.147 59.1312 32.4451 59.1312C31.7422 59.1322 31.1697 55.7464 31.1651 51.5687C31.1605 47.3911 31.7266 44.0043 32.4285 44.0034C33.1305 44.0025 33.704 47.3883 33.7085 51.566Z" fill="url(#paint1_radial_898_1525)"/>
<path d="M27.9342 30.2409C31.8605 31.6668 34.8499 33.3579 34.6104 34.0185C34.3709 34.6792 30.9934 34.058 27.0662 32.6321C23.139 31.2062 20.1505 29.5151 20.39 28.8545C20.6304 28.1948 24.008 28.815 27.9342 30.2409Z" fill="url(#paint2_radial_898_1525)"/>
<path d="M37.2943 33.6038C42.2739 31.6054 46.5231 30.5135 46.7856 31.1649C47.0471 31.8164 43.2227 33.9653 38.2431 35.9647C33.2635 37.9632 29.0142 39.0551 28.7527 38.4036C28.4903 37.7512 32.3147 35.6023 37.2943 33.6038Z" fill="url(#paint3_radial_898_1525)"/>
<path d="M36.3419 25.1458C34.7784 27.3259 31.7908 27.8599 29.6694 26.3386C27.548 24.8173 27.0948 21.8159 28.6583 19.6358C30.2218 17.4557 33.2094 16.9217 35.3308 18.443C37.4522 19.9643 37.9055 22.9656 36.3419 25.1458Z" fill="url(#paint4_radial_898_1525)"/>
<path d="M27.7481 32.7789C26.1845 34.959 23.197 35.493 21.0756 33.9717C18.9542 32.4504 18.5009 29.4491 20.0644 27.2689C21.6279 25.0888 24.6155 24.5548 26.7369 26.0761C28.8592 27.5974 29.3116 30.5988 27.7481 32.7789Z" fill="url(#paint5_radial_898_1525)"/>
<path d="M45.4083 35.8301C43.8448 38.0102 40.8572 38.5442 38.7358 37.0229C36.6144 35.5016 36.1612 32.5003 37.7247 30.3201C39.2882 28.14 42.2758 27.606 44.3972 29.1273C46.5195 30.6486 46.9719 33.65 45.4083 35.8301Z" fill="url(#paint6_radial_898_1525)"/>
<path d="M36.3245 57.0258C34.761 59.2059 31.7734 59.7399 29.652 58.2186C27.5306 56.6973 27.0773 53.696 28.6408 51.5158C30.2043 49.3357 33.1919 48.8017 35.3133 50.323C37.4356 51.8443 37.888 54.8457 36.3245 57.0258Z" fill="url(#paint7_radial_898_1525)"/>
<path d="M24.6805 19.1239C20.4955 21.4925 16.6664 22.6422 16.1291 21.6926C15.5917 20.7431 18.5481 18.0525 22.734 15.684C26.9189 13.3154 30.748 12.1658 31.2854 13.1153C31.8228 14.0648 28.8654 16.7554 24.6805 19.1239Z" fill="url(#paint8_radial_898_1525)" fill-opacity="0.8"/>
<defs>
<radialGradient id="paint0_radial_898_1525" cx="0" cy="0" r="1" gradientUnits="userSpaceOnUse" gradientTransform="translate(32.4364 25.6218) rotate(0.0582965) scale(1.27229 7.56229)">
<stop stop-color="#F9F9F9"/>
<stop offset="0.0488" stop-color="#EDF1FA"/>
<stop offset="0.0982" stop-color="#E6EDFA"/>
<stop offset="0.1217" stop-color="#DFE6FA" stop-opacity="0.9668"/>
<stop offset="0.2262" stop-color="#C5C9FC" stop-opacity="0.8188"/>
<stop offset="0.3388" stop-color="#B0B4FD" stop-opacity="0.6593"/>
<stop offset="0.4619" stop-color="#A1A4FE" stop-opacity="0.4851"/>
<stop offset="0.6033" stop-color="#999BFF" stop-opacity="0.2848"/>
<stop offset="0.8045" stop-color="#9698FF" stop-opacity="0"/>
</radialGradient>
<radialGradient id="paint1_radial_898_1525" cx="0" cy="0" r="1" gradientUnits="userSpaceOnUse" gradientTransform="translate(32.4364 51.5675) rotate(0.0582965) scale(1.27229 7.56229)">
<stop stop-color="#F9F9F9"/>
<stop offset="0.0488" stop-color="#EDF1FA"/>
<stop offset="0.0982" stop-color="#E6EDFA"/>
<stop offset="0.1217" stop-color="#DFE6FA" stop-opacity="0.9668"/>
<stop offset="0.2262" stop-color="#C5C9FC" stop-opacity="0.8188"/>
<stop offset="0.3388" stop-color="#B0B4FD" stop-opacity="0.6593"/>
<stop offset="0.4619" stop-color="#A1A4FE" stop-opacity="0.4851"/>
<stop offset="0.6033" stop-color="#999BFF" stop-opacity="0.2848"/>
<stop offset="0.8045" stop-color="#9698FF" stop-opacity="0"/>
</radialGradient>
<radialGradient id="paint2_radial_898_1525" cx="0" cy="0" r="1" gradientUnits="userSpaceOnUse" gradientTransform="translate(27.5007 31.4366) rotate(-69.9272) scale(1.27232 7.56213)">
<stop stop-color="#F9F9F9"/>
<stop offset="0.0488" stop-color="#EDF1FA"/>
<stop offset="0.0982" stop-color="#E6EDFA"/>
<stop offset="0.1217" stop-color="#DFE6FA" stop-opacity="0.9668"/>
<stop offset="0.2262" stop-color="#C5C9FC" stop-opacity="0.8188"/>
<stop offset="0.3388" stop-color="#B0B4FD" stop-opacity="0.6593"/>
<stop offset="0.4619" stop-color="#A1A4FE" stop-opacity="0.4851"/>
<stop offset="0.6033" stop-color="#999BFF" stop-opacity="0.2848"/>
<stop offset="0.8045" stop-color="#9698FF" stop-opacity="0"/>
</radialGradient>
<radialGradient id="paint3_radial_898_1525" cx="0" cy="0" r="1" gradientUnits="userSpaceOnUse" gradientTransform="translate(37.7688 34.7838) rotate(-111.715) scale(1.27235 9.71317)">
<stop stop-color="#F9F9F9"/>
<stop offset="0.0488" stop-color="#EDF1FA"/>
<stop offset="0.0982" stop-color="#E6EDFA"/>
<stop offset="0.1217" stop-color="#DFE6FA" stop-opacity="0.9668"/>
<stop offset="0.2262" stop-color="#C5C9FC" stop-opacity="0.8188"/>
<stop offset="0.3388" stop-color="#B0B4FD" stop-opacity="0.6593"/>
<stop offset="0.4619" stop-color="#A1A4FE" stop-opacity="0.4851"/>
<stop offset="0.6033" stop-color="#999BFF" stop-opacity="0.2848"/>
<stop offset="0.8045" stop-color="#9698FF" stop-opacity="0"/>
</radialGradient>
<radialGradient id="paint4_radial_898_1525" cx="0" cy="0" r="1" gradientUnits="userSpaceOnUse" gradientTransform="translate(32.4999 22.3907) rotate(35.6657) scale(4.72869 4.85645)">
<stop stop-color="#F9F9F9"/>
<stop offset="0.0488" stop-color="#EDF1FA"/>
<stop offset="0.0982" stop-color="#E6EDFA"/>
<stop offset="0.1217" stop-color="#DFE6FA" stop-opacity="0.9668"/>
<stop offset="0.2262" stop-color="#C5C9FC" stop-opacity="0.8188"/>
<stop offset="0.3388" stop-color="#B0B4FD" stop-opacity="0.6593"/>
<stop offset="0.4619" stop-color="#A1A4FE" stop-opacity="0.4851"/>
<stop offset="0.6033" stop-color="#999BFF" stop-opacity="0.2848"/>
<stop offset="0.8045" stop-color="#9698FF" stop-opacity="0"/>
</radialGradient>
<radialGradient id="paint5_radial_898_1525" cx="0" cy="0" r="1" gradientUnits="userSpaceOnUse" gradientTransform="translate(23.9062 30.0238) rotate(35.6657) scale(4.72869 4.85645)">
<stop stop-color="#F9F9F9"/>
<stop offset="0.0488" stop-color="#EDF1FA"/>
<stop offset="0.0982" stop-color="#E6EDFA"/>
<stop offset="0.1217" stop-color="#DFE6FA" stop-opacity="0.9668"/>
<stop offset="0.2262" stop-color="#C5C9FC" stop-opacity="0.8188"/>
<stop offset="0.3388" stop-color="#B0B4FD" stop-opacity="0.6593"/>
<stop offset="0.4619" stop-color="#A1A4FE" stop-opacity="0.4851"/>
<stop offset="0.6033" stop-color="#999BFF" stop-opacity="0.2848"/>
<stop offset="0.8045" stop-color="#9698FF" stop-opacity="0"/>
</radialGradient>
<radialGradient id="paint6_radial_898_1525" cx="0" cy="0" r="1" gradientUnits="userSpaceOnUse" gradientTransform="translate(41.5664 33.075) rotate(35.6657) scale(4.72869 4.85645)">
<stop stop-color="#F9F9F9"/>
<stop offset="0.0488" stop-color="#EDF1FA"/>
<stop offset="0.0982" stop-color="#E6EDFA"/>
<stop offset="0.1217" stop-color="#DFE6FA" stop-opacity="0.9668"/>
<stop offset="0.2262" stop-color="#C5C9FC" stop-opacity="0.8188"/>
<stop offset="0.3388" stop-color="#B0B4FD" stop-opacity="0.6593"/>
<stop offset="0.4619" stop-color="#A1A4FE" stop-opacity="0.4851"/>
<stop offset="0.6033" stop-color="#999BFF" stop-opacity="0.2848"/>
<stop offset="0.8045" stop-color="#9698FF" stop-opacity="0"/>
</radialGradient>
<radialGradient id="paint7_radial_898_1525" cx="0" cy="0" r="1" gradientUnits="userSpaceOnUse" gradientTransform="translate(32.4826 54.2706) rotate(35.6657) scale(4.72869 4.85645)">
<stop stop-color="#F9F9F9"/>
<stop offset="0.0488" stop-color="#EDF1FA"/>
<stop offset="0.0982" stop-color="#E6EDFA"/>
<stop offset="0.1217" stop-color="#DFE6FA" stop-opacity="0.9668"/>
<stop offset="0.2262" stop-color="#C5C9FC" stop-opacity="0.8188"/>
<stop offset="0.3388" stop-color="#B0B4FD" stop-opacity="0.6593"/>
<stop offset="0.4619" stop-color="#A1A4FE" stop-opacity="0.4851"/>
<stop offset="0.6033" stop-color="#999BFF" stop-opacity="0.2848"/>
<stop offset="0.8045" stop-color="#9698FF" stop-opacity="0"/>
</radialGradient>
<radialGradient id="paint8_radial_898_1525" cx="0" cy="0" r="1" gradientUnits="userSpaceOnUse" gradientTransform="translate(23.7066 17.4045) rotate(60.5858) scale(1.97667 8.70498)">
<stop stop-color="#F9F9F9"/>
<stop offset="0.0488" stop-color="#EDF1FA"/>
<stop offset="0.0982" stop-color="#E6EDFA"/>
<stop offset="0.1217" stop-color="#DFE6FA" stop-opacity="0.9668"/>
<stop offset="0.2262" stop-color="#C5C9FC" stop-opacity="0.8188"/>
<stop offset="0.3388" stop-color="#B0B4FD" stop-opacity="0.6593"/>
<stop offset="0.4619" stop-color="#A1A4FE" stop-opacity="0.4851"/>
<stop offset="0.6033" stop-color="#999BFF" stop-opacity="0.2848"/>
<stop offset="0.8045" stop-color="#9698FF" stop-opacity="0"/>
</radialGradient>
</defs>
</svg>
