<svg width="247" height="40" viewBox="0 0 247 40" fill="none" xmlns="http://www.w3.org/2000/svg">
<g filter="url(#filter0_d_898_1550)">
<path d="M11.88 22L8.56 16.3H6.36V22H4.54V8.06H9.04C10.0933 8.06 10.98 8.24 11.7 8.6C12.4333 8.96 12.98 9.44667 13.34 10.06C13.7 10.6733 13.88 11.3733 13.88 12.16C13.88 13.12 13.6 13.9667 13.04 14.7C12.4933 15.4333 11.6667 15.92 10.56 16.16L14.06 22H11.88ZM6.36 14.84H9.04C10.0267 14.84 10.7667 14.6 11.26 14.12C11.7533 13.6267 12 12.9733 12 12.16C12 11.3333 11.7533 10.6933 11.26 10.24C10.78 9.78667 10.04 9.56 9.04 9.56H6.36V14.84ZM33.392 8.06V22H31.572V8.06H33.392ZM48.8539 22H47.0339L39.7139 10.9V22H37.8939V8.04H39.7139L47.0339 19.12V8.04H48.8539V22ZM61.2364 8.06V9.54H55.1764V14.24H60.0964V15.72H55.1764V22H53.3564V8.06H61.2364ZM71.1545 22.14C69.8612 22.14 68.6812 21.84 67.6145 21.24C66.5479 20.6267 65.7012 19.78 65.0745 18.7C64.4612 17.6067 64.1545 16.38 64.1545 15.02C64.1545 13.66 64.4612 12.44 65.0745 11.36C65.7012 10.2667 66.5479 9.42 67.6145 8.82C68.6812 8.20667 69.8612 7.9 71.1545 7.9C72.4612 7.9 73.6479 8.20667 74.7145 8.82C75.7812 9.42 76.6212 10.26 77.2345 11.34C77.8479 12.42 78.1545 13.6467 78.1545 15.02C78.1545 16.3933 77.8479 17.62 77.2345 18.7C76.6212 19.78 75.7812 20.6267 74.7145 21.24C73.6479 21.84 72.4612 22.14 71.1545 22.14ZM71.1545 20.56C72.1279 20.56 73.0012 20.3333 73.7745 19.88C74.5612 19.4267 75.1745 18.78 75.6145 17.94C76.0679 17.1 76.2945 16.1267 76.2945 15.02C76.2945 13.9 76.0679 12.9267 75.6145 12.1C75.1745 11.26 74.5679 10.6133 73.7945 10.16C73.0212 9.70667 72.1412 9.48 71.1545 9.48C70.1679 9.48 69.2879 9.70667 68.5145 10.16C67.7412 10.6133 67.1279 11.26 66.6745 12.1C66.2345 12.9267 66.0145 13.9 66.0145 15.02C66.0145 16.1267 66.2345 17.1 66.6745 17.94C67.1279 18.78 67.7412 19.4267 68.5145 19.88C69.3012 20.3333 70.1812 20.56 71.1545 20.56ZM89.2972 22L85.9772 16.3H83.7772V22H81.9572V8.06H86.4572C87.5105 8.06 88.3972 8.24 89.1172 8.6C89.8505 8.96 90.3972 9.44667 90.7572 10.06C91.1172 10.6733 91.2972 11.3733 91.2972 12.16C91.2972 13.12 91.0172 13.9667 90.4572 14.7C89.9105 15.4333 89.0839 15.92 87.9772 16.16L91.4772 22H89.2972ZM83.7772 14.84H86.4572C87.4439 14.84 88.1839 14.6 88.6772 14.12C89.1705 13.6267 89.4172 12.9733 89.4172 12.16C89.4172 11.3333 89.1705 10.6933 88.6772 10.24C88.1972 9.78667 87.4572 9.56 86.4572 9.56H83.7772V14.84ZM97.3452 9.54V14.2H102.425V15.7H97.3452V20.5H103.025V22H95.5252V8.04H103.025V9.54H97.3452ZM111.599 22.14C110.679 22.14 109.852 21.98 109.119 21.66C108.399 21.3267 107.832 20.8733 107.419 20.3C107.006 19.7133 106.792 19.04 106.779 18.28H108.719C108.786 18.9333 109.052 19.4867 109.519 19.94C109.999 20.38 110.692 20.6 111.599 20.6C112.466 20.6 113.146 20.3867 113.639 19.96C114.146 19.52 114.399 18.96 114.399 18.28C114.399 17.7467 114.252 17.3133 113.959 16.98C113.666 16.6467 113.299 16.3933 112.859 16.22C112.419 16.0467 111.826 15.86 111.079 15.66C110.159 15.42 109.419 15.18 108.859 14.94C108.312 14.7 107.839 14.3267 107.439 13.82C107.052 13.3 106.859 12.6067 106.859 11.74C106.859 10.98 107.052 10.3067 107.439 9.72C107.826 9.13333 108.366 8.68 109.059 8.36C109.766 8.04 110.572 7.88 111.479 7.88C112.786 7.88 113.852 8.20667 114.679 8.86C115.519 9.51333 115.992 10.38 116.099 11.46H114.099C114.032 10.9267 113.752 10.46 113.259 10.06C112.766 9.64667 112.112 9.44 111.299 9.44C110.539 9.44 109.919 9.64 109.439 10.04C108.959 10.4267 108.719 10.9733 108.719 11.68C108.719 12.1867 108.859 12.6 109.139 12.92C109.432 13.24 109.786 13.4867 110.199 13.66C110.626 13.82 111.219 14.0067 111.979 14.22C112.899 14.4733 113.639 14.7267 114.199 14.98C114.759 15.22 115.239 15.6 115.639 16.12C116.039 16.6267 116.239 17.32 116.239 18.2C116.239 18.88 116.059 19.52 115.699 20.12C115.339 20.72 114.806 21.2067 114.099 21.58C113.392 21.9533 112.559 22.14 111.599 22.14ZM128.897 8.06V9.54H125.097V22H123.277V9.54H119.457V8.06H128.897Z" fill="#7482FF"/>
</g>
<path d="M17 22L19.9721 15L22.9441 8H23.0559L29 22H26.7453L25.534 22H20.8756L18.9379 22H17ZM19.8404 20.4547H26.0516L22.9255 12.3205L19.8404 20.4547Z" fill="url(#paint0_linear_898_1550)"/>
<defs>
<filter id="filter0_d_898_1550" x="0.540039" y="7.88" width="132.357" height="22.26" filterUnits="userSpaceOnUse" color-interpolation-filters="sRGB">
<feFlood flood-opacity="0" result="BackgroundImageFix"/>
<feColorMatrix in="SourceAlpha" type="matrix" values="0 0 0 0 0 0 0 0 0 0 0 0 0 0 0 0 0 0 127 0" result="hardAlpha"/>
<feOffset dy="4"/>
<feGaussianBlur stdDeviation="2"/>
<feComposite in2="hardAlpha" operator="out"/>
<feColorMatrix type="matrix" values="0 0 0 0 0 0 0 0 0 0 0 0 0 0 0 0 0 0 0.25 0"/>
<feBlend mode="normal" in2="BackgroundImageFix" result="effect1_dropShadow_898_1550"/>
<feBlend mode="normal" in="SourceGraphic" in2="effect1_dropShadow_898_1550" result="shape"/>
</filter>
<linearGradient id="paint0_linear_898_1550" x1="-26.2114" y1="53.9176" x2="-23.2479" y2="83.3916" gradientUnits="userSpaceOnUse">
<stop stop-color="#7482FF"/>
<stop offset="1" stop-color="#BB8197"/>
</linearGradient>
</defs>
</svg>
