<svg width="23" height="23" viewBox="0 0 23 23" fill="none" xmlns="http://www.w3.org/2000/svg">
<g clip-path="url(#clip0_334_6756)">
<path d="M17.1768 7.88934C14.5049 6.39492 10.2165 3.99523 3.56478 0.270797C3.11632 -0.0253733 2.60035 -0.0641859 2.15454 0.086707L13.567 11.4991L17.1768 7.88934Z" fill="#32BBFF"/>
<path d="M2.15454 0.086731C2.07099 0.115032 1.98968 0.149172 1.91192 0.190411C1.41962 0.456708 1.05786 0.969133 1.05786 1.61722V21.3811C1.05786 22.0292 1.41957 22.5416 1.91192 22.8079C1.98954 22.8491 2.07081 22.8833 2.15427 22.9118L13.567 11.4992L2.15454 0.086731Z" fill="#32BBFF"/>
<path d="M13.567 11.4991L2.1543 22.9118C2.60024 23.0638 3.11621 23.028 3.5648 22.7275C10.0155 19.1153 14.2556 16.7441 16.9584 15.2369C17.0336 15.1947 17.1073 15.1533 17.1802 15.1124L13.567 11.4991Z" fill="#32BBFF"/>
<path d="M1.05786 11.4991V21.3811C1.05786 22.0292 1.41957 22.5416 1.91192 22.8078C1.98954 22.849 2.07081 22.8833 2.15427 22.9118L13.567 11.4991H1.05786Z" fill="#2C9FD9"/>
<path d="M3.56472 0.270786C3.03217 -0.0808636 2.40417 -0.070846 1.91187 0.19042L13.3937 11.6723L17.1767 7.88933C14.5048 6.39491 10.2164 3.99522 3.56472 0.270786Z" fill="#29CC5E"/>
<path d="M13.3938 11.326L1.91187 22.8078C2.40421 23.069 3.03217 23.0841 3.56472 22.7275C10.0154 19.1153 14.2555 16.744 16.9583 15.2369C17.0335 15.1946 17.1073 15.1533 17.1801 15.1124L13.3938 11.326Z" fill="#D93F21"/>
<path d="M21.9422 11.4991C21.9422 10.9515 21.6659 10.3989 21.1182 10.0924C21.1182 10.0924 20.094 9.52099 16.9548 7.76508L13.2207 11.4991L16.9584 15.2369C20.0632 13.4936 21.1182 12.9058 21.1182 12.9058C21.6659 12.5994 21.9422 12.0467 21.9422 11.4991Z" fill="#FFD500"/>
<path d="M21.1182 12.9058C21.6659 12.5994 21.9422 12.0467 21.9422 11.4991H13.2207L16.9584 15.2369C20.0633 13.4936 21.1182 12.9058 21.1182 12.9058Z" fill="#FFAA00"/>
</g>
<defs>
<clipPath id="clip0_334_6756">
<rect width="23" height="23" fill="white"/>
</clipPath>
</defs>
</svg>
