<svg width="281" height="257" viewBox="0 0 281 257" fill="none" xmlns="http://www.w3.org/2000/svg">
<path d="M38.2021 223L31.8075 212.021H27.5702V223H24.0648V196.151H32.732C34.7608 196.151 36.4686 196.497 37.8554 197.191C39.2678 197.884 40.3207 198.821 41.0141 200.003C41.7075 201.184 42.0542 202.532 42.0542 204.048C42.0542 205.897 41.5149 207.527 40.4363 208.94C39.3834 210.352 37.7912 211.29 35.6597 211.752L42.4009 223H38.2021ZM27.5702 209.209H32.732C34.6324 209.209 36.0577 208.747 37.0079 207.823C37.9581 206.872 38.4332 205.614 38.4332 204.048C38.4332 202.455 37.9581 201.223 37.0079 200.35C36.0834 199.476 34.6581 199.04 32.732 199.04H27.5702V209.209ZM79.6356 196.151V223H76.1301V196.151H79.6356ZM109.416 223H105.911L91.8119 201.621V223H88.3065V196.112H91.8119L105.911 217.453V196.112H109.416V223ZM133.266 196.151V199.001H121.594V208.054H131.07V210.904H121.594V223H118.088V196.151H133.266ZM152.369 223.27C149.877 223.27 147.605 222.692 145.55 221.536C143.496 220.355 141.865 218.724 140.658 216.644C139.477 214.538 138.886 212.176 138.886 209.556C138.886 206.937 139.477 204.587 140.658 202.507C141.865 200.401 143.496 198.77 145.55 197.614C147.605 196.433 149.877 195.843 152.369 195.843C154.885 195.843 157.171 196.433 159.225 197.614C161.28 198.77 162.898 200.388 164.079 202.468C165.26 204.548 165.851 206.911 165.851 209.556C165.851 212.201 165.26 214.564 164.079 216.644C162.898 218.724 161.28 220.355 159.225 221.536C157.171 222.692 154.885 223.27 152.369 223.27ZM152.369 220.226C154.243 220.226 155.925 219.79 157.415 218.917C158.93 218.044 160.111 216.798 160.959 215.18C161.832 213.562 162.268 211.688 162.268 209.556C162.268 207.399 161.832 205.524 160.959 203.932C160.111 202.314 158.943 201.069 157.453 200.195C155.964 199.322 154.269 198.886 152.369 198.886C150.468 198.886 148.773 199.322 147.284 200.195C145.794 201.069 144.613 202.314 143.74 203.932C142.892 205.524 142.469 207.399 142.469 209.556C142.469 211.688 142.892 213.562 143.74 215.18C144.613 216.798 145.794 218.044 147.284 218.917C148.799 219.79 150.494 220.226 152.369 220.226ZM187.312 223L180.918 212.021H176.681V223H173.175V196.151H181.842C183.871 196.151 185.579 196.497 186.966 197.191C188.378 197.884 189.431 198.821 190.124 200.003C190.818 201.184 191.165 202.532 191.165 204.048C191.165 205.897 190.625 207.527 189.547 208.94C188.494 210.352 186.901 211.29 184.77 211.752L191.511 223H187.312ZM176.681 209.209H181.842C183.743 209.209 185.168 208.747 186.118 207.823C187.068 206.872 187.544 205.614 187.544 204.048C187.544 202.455 187.068 201.223 186.118 200.35C185.194 199.476 183.768 199.04 181.842 199.04H176.681V209.209ZM202.813 199.001V207.977H212.598V210.866H202.813V220.111H213.753V223H199.308V196.112H213.753V199.001H202.813ZM230.267 223.27C228.495 223.27 226.903 222.961 225.491 222.345C224.104 221.703 223.012 220.83 222.216 219.726C221.42 218.596 221.009 217.299 220.984 215.835H224.72C224.849 217.093 225.362 218.159 226.261 219.032C227.185 219.88 228.521 220.304 230.267 220.304C231.936 220.304 233.246 219.893 234.196 219.071C235.172 218.223 235.66 217.145 235.66 215.835C235.66 214.808 235.378 213.973 234.813 213.331C234.248 212.689 233.541 212.201 232.694 211.867C231.847 211.534 230.704 211.174 229.266 210.789C227.494 210.327 226.068 209.864 224.99 209.402C223.937 208.94 223.025 208.221 222.255 207.245C221.51 206.243 221.138 204.908 221.138 203.239C221.138 201.775 221.51 200.478 222.255 199.348C223 198.218 224.04 197.345 225.375 196.729C226.736 196.112 228.29 195.804 230.036 195.804C232.553 195.804 234.607 196.433 236.199 197.692C237.817 198.95 238.729 200.619 238.934 202.699H235.082C234.954 201.672 234.415 200.773 233.464 200.003C232.514 199.207 231.256 198.809 229.689 198.809C228.226 198.809 227.031 199.194 226.107 199.964C225.182 200.709 224.72 201.762 224.72 203.123C224.72 204.099 224.99 204.895 225.529 205.511C226.094 206.128 226.775 206.603 227.571 206.937C228.392 207.245 229.535 207.604 230.999 208.015C232.771 208.503 234.196 208.991 235.275 209.479C236.354 209.941 237.278 210.673 238.048 211.675C238.819 212.651 239.204 213.986 239.204 215.681C239.204 216.991 238.857 218.223 238.164 219.379C237.471 220.535 236.443 221.472 235.082 222.191C233.721 222.91 232.116 223.27 230.267 223.27ZM263.585 196.151V199.001H256.266V223H252.76V199.001H245.403V196.151H263.585Z" fill="#7482FF"/>
<path d="M0.792437 244.962C0.792437 243.945 1.00278 243.04 1.42345 242.248C1.85391 241.445 2.4409 240.819 3.18442 240.369C3.93773 239.919 4.77908 239.694 5.70848 239.694C6.88246 239.694 7.87056 239.968 8.67278 240.516C9.475 241.064 10.062 241.832 10.4338 242.82H9.67067C9.37717 242.037 8.88801 241.421 8.20319 240.971C7.52815 240.511 6.69658 240.281 5.70848 240.281C4.91604 240.281 4.19698 240.472 3.55129 240.854C2.9056 241.225 2.39688 241.768 2.02512 242.482C1.65336 243.187 1.46748 244.013 1.46748 244.962C1.46748 245.902 1.65336 246.723 2.02512 247.428C2.39688 248.122 2.9056 248.661 3.55129 249.042C4.19698 249.424 4.91604 249.614 5.70848 249.614C6.69658 249.614 7.52815 249.389 8.20319 248.939C8.88801 248.48 9.37717 247.858 9.67067 247.076H10.4338C10.062 248.064 9.475 248.832 8.67278 249.38C7.87056 249.927 6.88246 250.201 5.70848 250.201C4.77908 250.201 3.93773 249.981 3.18442 249.541C2.4409 249.091 1.85391 248.47 1.42345 247.677C1.00278 246.875 0.792437 245.97 0.792437 244.962ZM22.9004 250.099L20.259 245.711H20.2003H17.9991V250.099H17.3387V239.797H20.1709C21.3155 239.797 22.1716 240.066 22.739 240.604C23.3162 241.142 23.6048 241.856 23.6048 242.747C23.6048 243.539 23.3798 244.194 22.9298 244.713C22.4895 245.222 21.8438 245.535 20.9927 245.652L23.6929 250.099H22.9004ZM17.9991 245.153H20.2003C21.1101 245.153 21.79 244.933 22.2401 244.493C22.6901 244.053 22.9151 243.471 22.9151 242.747C22.9151 241.171 22.0004 240.384 20.1709 240.384H17.9991V245.153ZM31.0676 240.355V244.654H35.1765V245.212H31.0676V249.541H35.6168V250.099H30.4072V239.797H35.6168V240.355H31.0676ZM48.2989 247.457H43.4122L42.429 250.099H41.7099L45.496 240.032H46.2297L50.0011 250.099H49.2821L48.2989 247.457ZM48.0934 246.9L45.8629 240.898L43.6176 246.9H48.0934ZM62.1952 239.797V240.355H59.2602V250.099H58.5999V240.355H55.6649V239.797H62.1952ZM73.203 250.216C72.254 250.216 71.398 249.996 70.6349 249.556C69.8718 249.106 69.275 248.48 68.8446 247.677C68.4141 246.875 68.1989 245.97 68.1989 244.962C68.1989 243.945 68.4141 243.04 68.8446 242.248C69.275 241.445 69.8718 240.824 70.6349 240.384C71.398 239.934 72.254 239.709 73.203 239.709C74.1519 239.709 75.008 239.934 75.7711 240.384C76.5341 240.824 77.1309 241.445 77.5614 242.248C77.9918 243.04 78.2071 243.945 78.2071 244.962C78.2071 245.97 77.9918 246.875 77.5614 247.677C77.1309 248.48 76.5341 249.106 75.7711 249.556C75.008 249.996 74.1519 250.216 73.203 250.216ZM73.203 249.629C74.015 249.629 74.7487 249.438 75.4042 249.057C76.0597 248.675 76.5733 248.132 76.945 247.428C77.3266 246.723 77.5173 245.902 77.5173 244.962C77.5173 244.013 77.3266 243.187 76.945 242.482C76.5733 241.778 76.0597 241.235 75.4042 240.854C74.7487 240.472 74.015 240.281 73.203 240.281C72.391 240.281 71.6572 240.472 71.0018 240.854C70.3463 241.235 69.8278 241.778 69.4462 242.482C69.0647 243.187 68.8739 244.013 68.8739 244.962C68.8739 245.902 69.0647 246.723 69.4462 247.428C69.8278 248.132 70.3463 248.675 71.0018 249.057C71.6572 249.438 72.391 249.629 73.203 249.629ZM90.6078 250.099L87.9664 245.711H87.9077H85.7064V250.099H85.0461V239.797H87.8783C89.0229 239.797 89.879 240.066 90.4464 240.604C91.0236 241.142 91.3122 241.856 91.3122 242.747C91.3122 243.539 91.0872 244.194 90.6372 244.713C90.1969 245.222 89.5512 245.535 88.7001 245.652L91.4002 250.099H90.6078ZM85.7064 245.153H87.9077C88.8175 245.153 89.4974 244.933 89.9474 244.493C90.3975 244.053 90.6225 243.471 90.6225 242.747C90.6225 241.171 89.7078 240.384 87.8783 240.384H85.7064V245.153ZM101.094 250.201C100.428 250.201 99.8463 250.084 99.3473 249.849C98.8484 249.614 98.457 249.296 98.1733 248.895C97.8994 248.494 97.7429 248.049 97.7037 247.56H98.3935C98.4717 248.098 98.7212 248.577 99.1419 248.998C99.5723 249.419 100.223 249.629 101.094 249.629C101.602 249.629 102.043 249.536 102.414 249.35C102.796 249.164 103.089 248.91 103.295 248.587C103.5 248.264 103.603 247.907 103.603 247.516C103.603 247.017 103.481 246.621 103.236 246.327C103.001 246.034 102.703 245.814 102.341 245.667C101.989 245.52 101.509 245.364 100.903 245.197C100.238 245.021 99.6995 244.845 99.2886 244.669C98.8875 244.493 98.5451 244.224 98.2614 243.862C97.9875 243.49 97.8505 242.986 97.8505 242.35C97.8505 241.861 97.9777 241.416 98.232 241.015C98.4962 240.604 98.8679 240.281 99.3473 240.046C99.8267 239.812 100.379 239.694 101.006 239.694C101.915 239.694 102.649 239.919 103.207 240.369C103.764 240.819 104.097 241.372 104.205 242.028H103.5C103.442 241.763 103.31 241.494 103.104 241.22C102.908 240.946 102.625 240.721 102.253 240.545C101.891 240.359 101.456 240.267 100.947 240.267C100.262 240.267 99.6848 240.457 99.2152 240.839C98.7457 241.211 98.5109 241.71 98.5109 242.336C98.5109 242.835 98.6331 243.236 98.8777 243.539C99.1223 243.833 99.4207 244.058 99.7729 244.214C100.135 244.361 100.619 244.512 101.226 244.669C101.901 244.855 102.434 245.036 102.825 245.212C103.226 245.378 103.564 245.647 103.838 246.019C104.122 246.381 104.263 246.875 104.263 247.501C104.263 247.961 104.141 248.396 103.896 248.807C103.652 249.218 103.29 249.556 102.811 249.82C102.341 250.074 101.769 250.201 101.094 250.201ZM124.66 250.216C123.711 250.216 122.855 249.996 122.092 249.556C121.329 249.106 120.732 248.48 120.302 247.677C119.871 246.875 119.656 245.97 119.656 244.962C119.656 243.945 119.871 243.04 120.302 242.248C120.732 241.445 121.329 240.824 122.092 240.384C122.855 239.934 123.711 239.709 124.66 239.709C125.609 239.709 126.465 239.934 127.228 240.384C127.992 240.824 128.588 241.445 129.019 242.248C129.449 243.04 129.664 243.945 129.664 244.962C129.664 245.97 129.449 246.875 129.019 247.677C128.588 248.48 127.992 249.106 127.228 249.556C126.465 249.996 125.609 250.216 124.66 250.216ZM124.66 249.629C125.472 249.629 126.206 249.438 126.862 249.057C127.517 248.675 128.031 248.132 128.402 247.428C128.784 246.723 128.975 245.902 128.975 244.962C128.975 244.013 128.784 243.187 128.402 242.482C128.031 241.778 127.517 241.235 126.862 240.854C126.206 240.472 125.472 240.281 124.66 240.281C123.848 240.281 123.115 240.472 122.459 240.854C121.804 241.235 121.285 241.778 120.904 242.482C120.522 243.187 120.331 244.013 120.331 244.962C120.331 245.902 120.522 246.723 120.904 247.428C121.285 248.132 121.804 248.675 122.459 249.057C123.115 249.438 123.848 249.629 124.66 249.629ZM148.493 239.797L145.646 250.099H144.927L142.109 240.824L139.248 250.099H138.558L135.755 239.797H136.459L138.925 249.174L141.757 239.797H142.491L145.294 249.233L147.774 239.797H148.493ZM162.341 250.099H161.681L155.635 240.883V250.099H154.975V239.812H155.635L161.681 248.998V239.812H162.341V250.099ZM184.826 242.703C184.826 243.612 184.543 244.322 183.975 244.83C183.408 245.329 182.566 245.579 181.451 245.579H179.25V250.099H178.59V239.797H181.451C182.586 239.797 183.432 240.061 183.99 240.589C184.548 241.108 184.826 241.812 184.826 242.703ZM181.451 244.992C183.261 244.992 184.166 244.229 184.166 242.703C184.166 241.949 183.951 241.377 183.52 240.986C183.09 240.584 182.4 240.384 181.451 240.384H179.25V244.992H181.451ZM192.104 249.541H195.934V250.099H191.443V239.797H192.104V249.541ZM208.117 247.457H203.23L202.247 250.099H201.528L205.314 240.032H206.048L209.819 250.099H209.1L208.117 247.457ZM207.911 246.9L205.681 240.898L203.435 246.9H207.911ZM222.013 239.797V240.355H219.078V250.099H218.418V240.355H215.483V239.797H222.013ZM233.74 239.797V240.355H229.088V244.654H233.153V245.212H229.088V250.099H228.428V239.797H233.74ZM244.929 250.216C243.98 250.216 243.124 249.996 242.361 249.556C241.597 249.106 241.001 248.48 240.57 247.677C240.14 246.875 239.925 245.97 239.925 244.962C239.925 243.945 240.14 243.04 240.57 242.248C241.001 241.445 241.597 240.824 242.361 240.384C243.124 239.934 243.98 239.709 244.929 239.709C245.878 239.709 246.734 239.934 247.497 240.384C248.26 240.824 248.857 241.445 249.287 242.248C249.717 243.04 249.933 243.945 249.933 244.962C249.933 245.97 249.717 246.875 249.287 247.677C248.857 248.48 248.26 249.106 247.497 249.556C246.734 249.996 245.878 250.216 244.929 250.216ZM244.929 249.629C245.741 249.629 246.474 249.438 247.13 249.057C247.785 248.675 248.299 248.132 248.671 247.428C249.052 246.723 249.243 245.902 249.243 244.962C249.243 244.013 249.052 243.187 248.671 242.482C248.299 241.778 247.785 241.235 247.13 240.854C246.474 240.472 245.741 240.281 244.929 240.281C244.117 240.281 243.383 240.472 242.727 240.854C242.072 241.235 241.553 241.778 241.172 242.482C240.79 243.187 240.6 244.013 240.6 244.962C240.6 245.902 240.79 246.723 241.172 247.428C241.553 248.132 242.072 248.675 242.727 249.057C243.383 249.438 244.117 249.629 244.929 249.629ZM262.333 250.099L259.692 245.711H259.633H257.432V250.099H256.772V239.797H259.604C260.749 239.797 261.605 240.066 262.172 240.604C262.749 241.142 263.038 241.856 263.038 242.747C263.038 243.539 262.813 244.194 262.363 244.713C261.923 245.222 261.277 245.535 260.426 245.652L263.126 250.099H262.333ZM257.432 245.153H259.633C260.543 245.153 261.223 244.933 261.673 244.493C262.123 244.053 262.348 243.471 262.348 242.747C262.348 241.171 261.433 240.384 259.604 240.384H257.432V245.153ZM279.452 240.017V250.099H278.792V241.396L274.918 250.099H274.389L270.501 241.396V250.099H269.84V240.017H270.545L274.654 249.233L278.763 240.017H279.452Z" fill="white"/>
<path d="M149.452 143.484L183.983 128.566C188.046 126.219 190.551 121.883 190.551 117.189V73.6205C190.551 69.5112 188.359 65.7142 184.8 63.6596L146.251 41.4052C142.692 39.3506 138.308 39.3506 134.749 41.4052L96.2005 63.6596C92.6414 65.7142 90.4492 69.5112 90.4492 73.6205V117.189C90.4492 121.883 92.9538 126.219 97.0172 128.566L131.88 143.627" stroke="#7482FF" stroke-width="2.46154" stroke-miterlimit="10"/>
<path d="M140.5 169.667V115.198L164.792 105.185" stroke="#7C89FA" stroke-width="2.46154" stroke-miterlimit="10"/>
<path d="M168.893 107.807C171.389 107.807 173.412 105.784 173.412 103.288C173.412 100.792 171.389 98.769 168.893 98.769C166.397 98.769 164.374 100.792 164.374 103.288C164.374 105.784 166.397 107.807 168.893 107.807Z" stroke="#7C89FA" stroke-width="2.46154" stroke-miterlimit="10"/>
<path d="M117.854 95.448L140.303 104.409V74.2339" stroke="#7C89FA" stroke-width="2.46154" stroke-miterlimit="10"/>
<path d="M144.766 70.6746C145.165 68.211 143.492 65.8897 141.029 65.4899C138.565 65.0901 136.244 66.7631 135.844 69.2267C135.444 71.6903 137.117 74.0116 139.581 74.4115C142.045 74.8113 144.366 73.1382 144.766 70.6746Z" stroke="#7C89FA" stroke-width="2.46154" stroke-miterlimit="10"/>
<path d="M118.123 94.491C118.523 92.0274 116.85 89.7061 114.386 89.3063C111.923 88.9065 109.601 90.5795 109.201 93.0431C108.802 95.5067 110.475 97.828 112.938 98.2279C115.402 98.6277 117.723 96.9547 118.123 94.491Z" stroke="#7C89FA" stroke-width="2.46154" stroke-miterlimit="10"/>
<path d="M144.275 80.0134C144.289 93.0605 142.521 103.64 140.329 103.64C138.134 103.643 136.345 93.0691 136.331 80.022C136.317 66.9749 138.085 56.3979 140.277 56.395C142.469 56.3922 144.26 66.9663 144.275 80.0134Z" fill="url(#paint0_radial_949_2011)"/>
<path d="M144.275 161.044C144.289 174.091 142.521 184.671 140.329 184.671C138.134 184.674 136.345 174.1 136.331 161.053C136.317 148.006 138.085 137.429 140.277 137.426C142.469 137.423 144.26 147.997 144.275 161.044Z" fill="url(#paint1_radial_949_2011)"/>
<path d="M126.241 94.4448C138.503 98.8979 147.839 104.179 147.091 106.243C146.343 108.306 135.795 106.366 123.53 101.913C111.265 97.4594 101.932 92.1781 102.68 90.1148C103.43 88.0545 113.979 89.9916 126.241 94.4448Z" fill="url(#paint2_radial_949_2011)"/>
<path d="M155.473 104.947C171.024 98.7057 184.295 95.2956 185.115 97.3302C185.931 99.3648 173.987 106.076 158.436 112.32C142.884 118.562 129.613 121.972 128.797 119.937C127.977 117.9 139.921 111.188 155.473 104.947Z" fill="url(#paint3_radial_949_2011)"/>
<path d="M152.498 78.5321C147.615 85.3408 138.285 87.0086 131.66 82.2574C125.034 77.5062 123.619 68.1328 128.502 61.3241C133.385 54.5154 142.715 52.8476 149.34 57.5988C155.966 62.35 157.381 71.7234 152.498 78.5321Z" fill="url(#paint4_radial_949_2011)"/>
<path d="M125.659 102.371C120.776 109.18 111.446 110.847 104.821 106.096C98.1954 101.345 96.7798 91.9716 101.663 85.1629C106.546 78.3542 115.876 76.6865 122.502 81.4376C129.13 86.1888 130.542 95.5622 125.659 102.371Z" fill="url(#paint5_radial_949_2011)"/>
<path d="M180.814 111.9C175.931 118.709 166.6 120.377 159.975 115.626C153.35 110.874 151.934 101.501 156.817 94.6922C161.7 87.8835 171.031 86.2158 177.656 90.9669C184.284 95.7181 185.697 105.092 180.814 111.9Z" fill="url(#paint6_radial_949_2011)"/>
<path d="M152.445 178.096C147.562 184.905 138.231 186.573 131.606 181.821C124.981 177.07 123.565 167.697 128.448 160.888C133.331 154.079 142.661 152.412 149.287 157.163C155.915 161.914 157.328 171.287 152.445 178.096Z" fill="url(#paint7_radial_949_2011)"/>
<path d="M116.079 59.7255C103.009 67.1226 91.0508 70.7132 89.3726 67.7477C87.6943 64.7823 96.9274 56.3794 110 48.9823C123.07 41.5851 135.029 37.9946 136.707 40.96C138.385 43.9255 129.149 52.3283 116.079 59.7255Z" fill="url(#paint8_radial_949_2011)" fill-opacity="0.8"/>
<path d="M47.4727 223.198L53.2208 209.484L58.9689 195.77H59.1852L70.6814 223.198H66.3208L63.978 223.198H54.9684L51.2207 223.198H47.4727ZM52.9662 220.171H64.9791L58.9329 204.234L52.9662 220.171Z" fill="url(#paint9_linear_949_2011)"/>
<defs>
<radialGradient id="paint0_radial_949_2011" cx="0" cy="0" r="1" gradientUnits="userSpaceOnUse" gradientTransform="translate(140.302 80.0187) rotate(0.0582965) scale(3.97345 23.6176)">
<stop stop-color="#F9F9F9"/>
<stop offset="0.0488" stop-color="#EDF1FA"/>
<stop offset="0.0982" stop-color="#E6EDFA"/>
<stop offset="0.1217" stop-color="#DFE6FA" stop-opacity="0.9668"/>
<stop offset="0.2262" stop-color="#C5C9FC" stop-opacity="0.8188"/>
<stop offset="0.3388" stop-color="#B0B4FD" stop-opacity="0.6593"/>
<stop offset="0.4619" stop-color="#A1A4FE" stop-opacity="0.4851"/>
<stop offset="0.6033" stop-color="#999BFF" stop-opacity="0.2848"/>
<stop offset="0.8045" stop-color="#9698FF" stop-opacity="0"/>
</radialGradient>
<radialGradient id="paint1_radial_949_2011" cx="0" cy="0" r="1" gradientUnits="userSpaceOnUse" gradientTransform="translate(140.302 161.049) rotate(0.0582965) scale(3.97345 23.6176)">
<stop stop-color="#F9F9F9"/>
<stop offset="0.0488" stop-color="#EDF1FA"/>
<stop offset="0.0982" stop-color="#E6EDFA"/>
<stop offset="0.1217" stop-color="#DFE6FA" stop-opacity="0.9668"/>
<stop offset="0.2262" stop-color="#C5C9FC" stop-opacity="0.8188"/>
<stop offset="0.3388" stop-color="#B0B4FD" stop-opacity="0.6593"/>
<stop offset="0.4619" stop-color="#A1A4FE" stop-opacity="0.4851"/>
<stop offset="0.6033" stop-color="#999BFF" stop-opacity="0.2848"/>
<stop offset="0.8045" stop-color="#9698FF" stop-opacity="0"/>
</radialGradient>
<radialGradient id="paint2_radial_949_2011" cx="0" cy="0" r="1" gradientUnits="userSpaceOnUse" gradientTransform="translate(124.887 98.1789) rotate(-69.9272) scale(3.97354 23.6171)">
<stop stop-color="#F9F9F9"/>
<stop offset="0.0488" stop-color="#EDF1FA"/>
<stop offset="0.0982" stop-color="#E6EDFA"/>
<stop offset="0.1217" stop-color="#DFE6FA" stop-opacity="0.9668"/>
<stop offset="0.2262" stop-color="#C5C9FC" stop-opacity="0.8188"/>
<stop offset="0.3388" stop-color="#B0B4FD" stop-opacity="0.6593"/>
<stop offset="0.4619" stop-color="#A1A4FE" stop-opacity="0.4851"/>
<stop offset="0.6033" stop-color="#999BFF" stop-opacity="0.2848"/>
<stop offset="0.8045" stop-color="#9698FF" stop-opacity="0"/>
</radialGradient>
<radialGradient id="paint3_radial_949_2011" cx="0" cy="0" r="1" gradientUnits="userSpaceOnUse" gradientTransform="translate(156.954 108.632) rotate(-111.715) scale(3.97366 30.335)">
<stop stop-color="#F9F9F9"/>
<stop offset="0.0488" stop-color="#EDF1FA"/>
<stop offset="0.0982" stop-color="#E6EDFA"/>
<stop offset="0.1217" stop-color="#DFE6FA" stop-opacity="0.9668"/>
<stop offset="0.2262" stop-color="#C5C9FC" stop-opacity="0.8188"/>
<stop offset="0.3388" stop-color="#B0B4FD" stop-opacity="0.6593"/>
<stop offset="0.4619" stop-color="#A1A4FE" stop-opacity="0.4851"/>
<stop offset="0.6033" stop-color="#999BFF" stop-opacity="0.2848"/>
<stop offset="0.8045" stop-color="#9698FF" stop-opacity="0"/>
</radialGradient>
<radialGradient id="paint4_radial_949_2011" cx="0" cy="0" r="1" gradientUnits="userSpaceOnUse" gradientTransform="translate(140.499 69.9277) rotate(35.6657) scale(14.7681 15.1671)">
<stop stop-color="#F9F9F9"/>
<stop offset="0.0488" stop-color="#EDF1FA"/>
<stop offset="0.0982" stop-color="#E6EDFA"/>
<stop offset="0.1217" stop-color="#DFE6FA" stop-opacity="0.9668"/>
<stop offset="0.2262" stop-color="#C5C9FC" stop-opacity="0.8188"/>
<stop offset="0.3388" stop-color="#B0B4FD" stop-opacity="0.6593"/>
<stop offset="0.4619" stop-color="#A1A4FE" stop-opacity="0.4851"/>
<stop offset="0.6033" stop-color="#999BFF" stop-opacity="0.2848"/>
<stop offset="0.8045" stop-color="#9698FF" stop-opacity="0"/>
</radialGradient>
<radialGradient id="paint5_radial_949_2011" cx="0" cy="0" r="1" gradientUnits="userSpaceOnUse" gradientTransform="translate(113.661 93.7664) rotate(35.6657) scale(14.768 15.1671)">
<stop stop-color="#F9F9F9"/>
<stop offset="0.0488" stop-color="#EDF1FA"/>
<stop offset="0.0982" stop-color="#E6EDFA"/>
<stop offset="0.1217" stop-color="#DFE6FA" stop-opacity="0.9668"/>
<stop offset="0.2262" stop-color="#C5C9FC" stop-opacity="0.8188"/>
<stop offset="0.3388" stop-color="#B0B4FD" stop-opacity="0.6593"/>
<stop offset="0.4619" stop-color="#A1A4FE" stop-opacity="0.4851"/>
<stop offset="0.6033" stop-color="#999BFF" stop-opacity="0.2848"/>
<stop offset="0.8045" stop-color="#9698FF" stop-opacity="0"/>
</radialGradient>
<radialGradient id="paint6_radial_949_2011" cx="0" cy="0" r="1" gradientUnits="userSpaceOnUse" gradientTransform="translate(168.815 103.296) rotate(35.6657) scale(14.768 15.1671)">
<stop stop-color="#F9F9F9"/>
<stop offset="0.0488" stop-color="#EDF1FA"/>
<stop offset="0.0982" stop-color="#E6EDFA"/>
<stop offset="0.1217" stop-color="#DFE6FA" stop-opacity="0.9668"/>
<stop offset="0.2262" stop-color="#C5C9FC" stop-opacity="0.8188"/>
<stop offset="0.3388" stop-color="#B0B4FD" stop-opacity="0.6593"/>
<stop offset="0.4619" stop-color="#A1A4FE" stop-opacity="0.4851"/>
<stop offset="0.6033" stop-color="#999BFF" stop-opacity="0.2848"/>
<stop offset="0.8045" stop-color="#9698FF" stop-opacity="0"/>
</radialGradient>
<radialGradient id="paint7_radial_949_2011" cx="0" cy="0" r="1" gradientUnits="userSpaceOnUse" gradientTransform="translate(140.446 169.492) rotate(35.6657) scale(14.768 15.1671)">
<stop stop-color="#F9F9F9"/>
<stop offset="0.0488" stop-color="#EDF1FA"/>
<stop offset="0.0982" stop-color="#E6EDFA"/>
<stop offset="0.1217" stop-color="#DFE6FA" stop-opacity="0.9668"/>
<stop offset="0.2262" stop-color="#C5C9FC" stop-opacity="0.8188"/>
<stop offset="0.3388" stop-color="#B0B4FD" stop-opacity="0.6593"/>
<stop offset="0.4619" stop-color="#A1A4FE" stop-opacity="0.4851"/>
<stop offset="0.6033" stop-color="#999BFF" stop-opacity="0.2848"/>
<stop offset="0.8045" stop-color="#9698FF" stop-opacity="0"/>
</radialGradient>
<radialGradient id="paint8_radial_949_2011" cx="0" cy="0" r="1" gradientUnits="userSpaceOnUse" gradientTransform="translate(113.038 54.3556) rotate(60.5858) scale(6.1733 27.1863)">
<stop stop-color="#F9F9F9"/>
<stop offset="0.0488" stop-color="#EDF1FA"/>
<stop offset="0.0982" stop-color="#E6EDFA"/>
<stop offset="0.1217" stop-color="#DFE6FA" stop-opacity="0.9668"/>
<stop offset="0.2262" stop-color="#C5C9FC" stop-opacity="0.8188"/>
<stop offset="0.3388" stop-color="#B0B4FD" stop-opacity="0.6593"/>
<stop offset="0.4619" stop-color="#A1A4FE" stop-opacity="0.4851"/>
<stop offset="0.6033" stop-color="#999BFF" stop-opacity="0.2848"/>
<stop offset="0.8045" stop-color="#9698FF" stop-opacity="0"/>
</radialGradient>
<linearGradient id="paint9_linear_949_2011" x1="-36.101" y1="285.731" x2="-30.2212" y2="343.46" gradientUnits="userSpaceOnUse">
<stop stop-color="#7482FF"/>
<stop offset="1" stop-color="#BB8197"/>
</linearGradient>
</defs>
</svg>
